<svg xmlns="http://www.w3.org/2000/svg" viewBox="0 0 32 32" width="32" height="32">
  <defs>
    <linearGradient id="bulbGradient" x1="0%" y1="0%" x2="100%" y2="100%">
      <stop offset="0%" style="stop-color:#667eea;stop-opacity:1" />
      <stop offset="100%" style="stop-color:#764ba2;stop-opacity:1" />
    </linearGradient>
    <linearGradient id="glowGradient" x1="0%" y1="0%" x2="100%" y2="100%">
      <stop offset="0%" style="stop-color:#ffffff;stop-opacity:0.8" />
      <stop offset="100%" style="stop-color:#ffffff;stop-opacity:0.2" />
    </linearGradient>
  </defs>
  
  <!-- Background circle -->
  <circle cx="16" cy="16" r="15" fill="url(#bulbGradient)" stroke="#ffffff" stroke-width="1"/>
  
  <!-- Lightbulb body -->
  <path d="M16 4 C12 4 9 7 9 11 C9 14 10 16 12 18 C12 20 12 22 12 24 L20 24 C20 22 20 20 20 18 C22 16 23 14 23 11 C23 7 20 4 16 4 Z" 
        fill="#ffffff" opacity="0.9"/>
  
  <!-- Lightbulb base -->
  <rect x="14" y="24" width="4" height="2" fill="#ffffff" opacity="0.7"/>
  <rect x="13" y="26" width="6" height="1" fill="#ffffff" opacity="0.5"/>
  
  <!-- Filament -->
  <path d="M16 8 L16 12 M14 10 L18 10 M15 12 L17 12" 
        stroke="#667eea" stroke-width="1" stroke-linecap="round"/>
  
  <!-- Glow effect -->
  <circle cx="16" cy="16" r="8" fill="url(#glowGradient)" opacity="0.3"/>
  
  <!-- Sparkle -->
  <circle cx="12" cy="12" r="1" fill="#ffffff" opacity="0.8"/>
  <circle cx="20" cy="12" r="0.8" fill="#ffffff" opacity="0.6"/>
  <circle cx="14" cy="20" r="0.6" fill="#ffffff" opacity="0.7"/>
</svg> 